<svg width="206" height="209" viewBox="0 0 206 209" fill="none" xmlns="http://www.w3.org/2000/svg">
<g opacity="0.1">
<path d="M127.762 104.081C127.762 117.756 116.676 128.842 103 128.842C89.3244 128.842 78.2381 117.756 78.2381 104.081C78.2381 90.4049 89.3244 79.3187 103 79.3187C116.676 79.3187 127.762 90.4049 127.762 104.081Z" fill="white"/>
<path fill-rule="evenodd" clip-rule="evenodd" d="M103 208.081C155.393 208.081 198.738 169.338 205.947 118.938H145.035C138.917 136.249 122.407 148.652 103 148.652C83.5933 148.652 67.0835 136.249 60.9648 118.938H0.0532055C7.26233 169.338 50.6067 208.081 103 208.081ZM60.9648 89.2234H0.0532055C7.26233 38.8236 50.6067 0.0805664 103 0.0805664C155.393 0.0805664 198.738 38.8236 205.947 89.2234H145.035C138.917 71.912 122.407 59.5091 103 59.5091C83.5933 59.5091 67.0835 71.912 60.9648 89.2234ZM127.762 104.081C127.762 117.756 116.676 128.842 103 128.842C89.3244 128.842 78.2381 117.756 78.2381 104.081C78.2381 90.4049 89.3244 79.3187 103 79.3187C116.676 79.3187 127.762 90.4049 127.762 104.081Z" fill="white"/>
</g>
</svg>
